<?xml version="1.0" encoding="utf-8"?>
<!-- Generator: Adobe Illustrator 16.0.0, SVG Export Plug-In . SVG Version: 6.00 Build 0)  -->
<!DOCTYPE svg PUBLIC "-//W3C//DTD SVG 1.1//EN" "http://www.w3.org/Graphics/SVG/1.1/DTD/svg11.dtd">
<svg version="1.1" id="Layer_1" xmlns="http://www.w3.org/2000/svg" xmlns:xlink="http://www.w3.org/1999/xlink" x="0px" y="0px"
	 width="512px" height="512px" viewBox="0 0 512 512" enable-background="new 0 0 512 512" xml:space="preserve">
<g>
	<g>
		<path fill="#2A3B8E" d="M448.897,0.001H61.103c-10.602,0-19.196,8.594-19.196,19.196v473.607C41.907,503.405,50.5,512,61.103,512
			h387.795c10.601,0,19.195-8.595,19.195-19.196V19.197C468.093,8.596,459.5,0.001,448.897,0.001z M111.95,66.572
			c0-3.787,3.07-6.857,6.857-6.857h272.384c3.787,0,6.857,3.07,6.857,6.857v160.835c0,3.787-3.07,6.857-6.857,6.857H118.807
			c-3.787,0-6.857-3.07-6.857-6.857V66.572z M218.303,444.005c0,3.788-3.07,6.857-6.857,6.857h-75.514
			c-3.787,0-6.857-3.069-6.857-6.857V326.892c0-3.789,3.07-6.857,6.857-6.857h75.514c3.788,0,6.857,3.068,6.857,6.857V444.005
			L218.303,444.005z M244.457,315.814c0,3.787-3.07,6.856-6.857,6.856h-8.329c-3.788,0-6.857-3.069-6.857-6.856v-3.638h-97.199
			v3.638c0,3.787-3.07,6.856-6.857,6.856h-8.466c-3.788,0-6.857-3.069-6.857-6.856v-18.88c0-3.787,3.07-6.856,6.857-6.856H237.6
			c3.787,0,6.857,3.069,6.857,6.856V315.814L244.457,315.814z M297.432,449.123c0,2.621-2.127,4.747-4.748,4.747h-27.789
			c-2.621,0-4.748-2.126-4.748-4.747v-27.787c0-2.621,2.127-4.748,4.748-4.748h27.789c2.621,0,4.748,2.127,4.748,4.748V449.123z
			 M297.432,394.353c0,2.622-2.127,4.748-4.748,4.748h-27.789c-2.621,0-4.748-2.126-4.748-4.748v-27.787
			c0-2.62,2.127-4.747,4.748-4.747h27.789c2.621,0,4.748,2.127,4.748,4.747V394.353z M297.432,339.587
			c0,2.62-2.127,4.747-4.748,4.747h-27.789c-2.621,0-4.748-2.127-4.748-4.747V311.8c0-2.622,2.127-4.748,4.748-4.748h27.789
			c2.621,0,4.748,2.126,4.748,4.748V339.587z M352.197,449.123c0,2.621-2.125,4.747-4.747,4.747h-27.788
			c-2.622,0-4.747-2.126-4.747-4.747v-27.787c0-2.621,2.125-4.748,4.747-4.748h27.788c2.622,0,4.747,2.127,4.747,4.748V449.123z
			 M352.197,394.353c0,2.622-2.125,4.748-4.747,4.748h-27.788c-2.622,0-4.747-2.126-4.747-4.748v-27.787
			c0-2.62,2.125-4.747,4.747-4.747h27.788c2.622,0,4.747,2.127,4.747,4.747V394.353z M352.197,339.587
			c0,2.62-2.125,4.747-4.747,4.747h-27.788c-2.622,0-4.747-2.127-4.747-4.747V311.8c0-2.622,2.125-4.748,4.747-4.748h27.788
			c2.622,0,4.747,2.126,4.747,4.748V339.587z M406.965,449.123c0,2.621-2.125,4.747-4.747,4.747H374.43
			c-2.622,0-4.747-2.126-4.747-4.747v-27.787c0-2.621,2.125-4.748,4.747-4.748h27.788c2.622,0,4.747,2.127,4.747,4.748V449.123z
			 M406.965,394.353c0,2.622-2.125,4.748-4.747,4.748H374.43c-2.622,0-4.747-2.126-4.747-4.748v-27.787
			c0-2.62,2.125-4.747,4.747-4.747h27.788c2.622,0,4.747,2.127,4.747,4.747V394.353z M406.965,339.587
			c0,2.62-2.125,4.747-4.747,4.747H374.43c-2.622,0-4.747-2.127-4.747-4.747V311.8c0-2.622,2.125-4.748,4.747-4.748h27.788
			c2.622,0,4.747,2.126,4.747,4.748V339.587z"/>
		<path fill="#2A3B8E" d="M140.011,187.976h12.634c2.065,0,3.874-1.376,4.426-3.365l5.171-18.638h22.954l5.63,18.733
			c0.584,1.941,2.372,3.271,4.398,3.271h13.437c1.46,0,2.833-0.693,3.698-1.869c0.866-1.174,1.122-2.69,0.69-4.084l-24.393-78.66
			c-0.596-1.922-2.374-3.232-4.386-3.232h-20.22c-2.019,0-3.802,1.32-4.393,3.251l-24.042,78.66c-0.425,1.393-0.166,2.904,0.7,4.074
			C137.185,187.285,138.555,187.976,140.011,187.976z M170.341,132.518c0.845-2.999,1.643-6.542,2.419-9.989
			c0.221-0.983,0.438-1.943,0.652-2.876c1.059,4.266,2.235,8.941,3.408,12.85l4.949,16.85h-16.137L170.341,132.518z"/>
		<path fill="#2A3B8E" d="M210.125,118.53h18.429v64.853c0,2.536,2.056,4.593,4.592,4.593h12.393c2.538,0,4.593-2.056,4.593-4.593
			V118.53h18.81c2.536,0,4.594-2.056,4.594-4.593v-9.214c0-2.537-2.056-4.593-4.594-4.593h-58.819c-2.536,0-4.593,2.056-4.593,4.593
			v9.214C205.532,116.474,207.59,118.53,210.125,118.53z"/>
		<path fill="#2A3B8E" d="M282.859,187.976h10.796c2.453,0,4.472-1.927,4.588-4.378l1.365-29.135
			c0.417-7.008,0.726-15.092,1.022-22.91c0.061-1.575,0.119-3.146,0.18-4.706c1.738,8.352,3.93,17.389,6.255,25.748l8.446,30.612
			c0.55,1.993,2.36,3.372,4.427,3.372h9.846c2.01,0,3.786-1.307,4.385-3.226l9.646-30.936c2.818-8.566,5.6-17.99,7.894-26.712
			c0.107,10.536,0.436,20.533,0.729,28.445l1.14,29.412c0.097,2.465,2.122,4.415,4.59,4.415h11.822c1.261,0,2.468-0.519,3.335-1.436
			c0.868-0.917,1.319-2.15,1.251-3.41l-4.317-78.66c-0.134-2.436-2.147-4.341-4.586-4.341H346.28c-1.997,0-3.762,1.288-4.374,3.187
			l-8.355,25.996c-0.012,0.038-0.022,0.076-0.035,0.114c-2.677,9.131-5.272,19.182-7.21,26.993
			c-1.57-7.685-3.669-16.337-6.497-26.849c-0.009-0.034-0.019-0.066-0.027-0.099l-7.639-26.042
			c-0.573-1.956-2.368-3.301-4.408-3.301h-19.857c-2.424,0-4.43,1.883-4.586,4.301l-5.017,78.66
			c-0.083,1.267,0.366,2.51,1.234,3.435C280.377,187.451,281.589,187.976,282.859,187.976z"/>
	</g>
</g>
</svg>
