<?xml version="1.0" encoding="utf-8"?>
<!-- Generator: Adobe Illustrator 16.0.0, SVG Export Plug-In . SVG Version: 6.00 Build 0)  -->
<!DOCTYPE svg PUBLIC "-//W3C//DTD SVG 1.1//EN" "http://www.w3.org/Graphics/SVG/1.1/DTD/svg11.dtd">
<svg version="1.1" id="Layer_1" xmlns="http://www.w3.org/2000/svg" xmlns:xlink="http://www.w3.org/1999/xlink" x="0px" y="0px"
	 width="512px" height="512px" viewBox="0 0 512 512" enable-background="new 0 0 512 512" xml:space="preserve">
<g>
	<g>
		<path fill="#2A3B8E" d="M278.128,373.354H35.238c-5.558,0-10.068-4.51-10.068-10.066V171.785h428.414v25.17
			c0,6.922,5.663,12.585,12.585,12.585s12.585-5.663,12.585-12.585v-90.717c0-19.402-15.836-35.238-35.238-35.238H35.238
			C15.731,71,0,86.836,0,106.238v257.049c0,19.4,15.836,35.236,35.238,35.236h242.995c6.922,0,12.586-5.662,12.586-12.584
			S285.154,373.354,278.128,373.354z M35.238,96.17h408.278c5.559,0,10.068,4.509,10.068,10.068v40.377H25.065v-40.377
			C25.065,100.679,29.68,96.17,35.238,96.17z"/>
		<path fill="#2A3B8E" d="M251.909,265.229c0-6.922-5.663-12.586-12.585-12.586H88.095c-6.921,0-12.585,5.664-12.585,12.586
			s5.664,12.584,12.585,12.584h151.229C246.351,277.812,251.909,272.15,251.909,265.229z"/>
		<path fill="#2A3B8E" d="M88.095,297.74c-6.921,0-12.585,5.662-12.585,12.584s5.664,12.586,12.585,12.586h60.513
			c6.922,0,12.585-5.664,12.585-12.586s-5.663-12.584-12.585-12.584H88.095z"/>
		<path fill="#2A3B8E" d="M86.626,232.192h151.229c6.922,0,12.585-5.663,12.585-12.585s-5.663-12.585-12.585-12.585H86.626
			c-6.921,0-12.585,5.663-12.585,12.585S79.6,232.192,86.626,232.192z"/>
		<path fill="#2A3B8E" d="M499.519,318.818h-18.458v-29.363c0-36.393-29.68-66.072-66.071-66.072s-66.07,29.68-66.07,66.072v29.363
			h-18.458c-6.922,0-12.585,5.664-12.585,12.586v109.07c0,6.922,5.663,12.584,12.585,12.584h168.953
			c6.922,0,12.585-5.662,12.585-12.584v-109.07C512.104,324.377,506.44,318.818,499.519,318.818z M374.089,289.35
			c0-22.549,18.353-40.901,40.901-40.901c22.548,0,40.9,18.353,40.9,40.901v29.365h-81.802V289.35z M486.934,427.783H343.046
			v-83.898h143.783v83.898H486.934z"/>
	</g>
</g>
</svg>
