<?xml version="1.0" encoding="utf-8"?>
<!-- Generator: Adobe Illustrator 16.0.0, SVG Export Plug-In . SVG Version: 6.00 Build 0)  -->
<!DOCTYPE svg PUBLIC "-//W3C//DTD SVG 1.1//EN" "http://www.w3.org/Graphics/SVG/1.1/DTD/svg11.dtd">
<svg version="1.1" id="Layer_1" xmlns="http://www.w3.org/2000/svg" xmlns:xlink="http://www.w3.org/1999/xlink" x="0px" y="0px"
	 width="512px" height="512px" viewBox="0 0 512 512" enable-background="new 0 0 512 512" xml:space="preserve">
<g>
	<path fill="#2A3B8E" d="M123.028,349.463c-14.18,0-25.715,11.535-25.715,25.715c0,14.179,11.537,25.714,25.715,25.714
		s25.714-11.535,25.714-25.714C148.742,360.998,137.206,349.463,123.028,349.463z M123.028,382.184
		c-3.864,0-7.007-3.145-7.007-7.006c0-3.863,3.144-7.008,7.007-7.008c3.862,0,7.007,3.143,7.007,7.008
		C130.035,379.041,126.89,382.184,123.028,382.184z"/>
	<path fill="#2A3B8E" d="M388.971,349.463c-14.18,0-25.715,11.535-25.715,25.715c0,14.179,11.536,25.714,25.715,25.714
		c14.178,0,25.715-11.535,25.715-25.714C414.687,360.998,403.149,349.463,388.971,349.463z M388.971,382.184
		c-3.864,0-7.007-3.145-7.007-7.006c0-3.863,3.144-7.008,7.007-7.008c3.862,0,7.007,3.143,7.007,7.008
		C395.978,379.041,392.834,382.184,388.971,382.184z"/>
	<path fill="#2A3B8E" d="M500.126,330.055v-87.771v-95.59c0-29.772-24.222-53.994-53.994-53.994H95.75
		c-46.25,0-83.877,37.628-83.877,83.878v153.475c-7.204,5.412-11.874,14.027-11.874,23.711v1.147
		c0,16.333,13.288,29.621,29.621,29.621h38.081c4.469,26.507,27.569,46.767,55.327,46.767c27.757,0,50.858-20.26,55.327-46.767
		h155.29c4.469,26.507,27.569,46.767,55.327,46.767s50.858-20.26,55.327-46.767h38.08c16.334,0,29.621-13.288,29.621-29.621v-1.147
		C511.999,344.08,507.329,335.465,500.126,330.055z M481.418,232.93h-25.671c-1.313,0-2.383-1.067-2.383-2.382V158.43
		c0-1.313,1.067-2.382,2.383-2.382h25.671V232.93z M18.707,354.911v-1.147c0-6.023,4.895-10.926,10.913-10.926h47.582
		c-4.76,6.727-8.078,14.537-9.502,22.986H29.62C23.602,365.824,18.707,360.93,18.707,354.911z M123.028,412.591
		c-20.63,0-37.414-16.785-37.414-37.415s16.784-37.414,37.414-37.414s37.414,16.784,37.414,37.414S143.658,412.591,123.028,412.591z
		 M333.644,365.824H178.354c-4.467-26.508-27.569-46.77-55.327-46.77c-8.303,0-16.181,1.826-23.279,5.076H30.581V176.58
		c0-35.936,29.235-65.17,65.169-65.17h350.382c16.218,0,29.906,11.001,34.018,25.932h-24.404c-11.629,0-21.09,9.46-21.09,21.09
		v72.118c0,11.629,9.46,21.09,21.09,21.09h25.673v72.493h-69.169c-7.097-3.249-14.976-5.076-23.278-5.076
		C361.213,319.056,338.11,339.317,333.644,365.824z M388.971,412.591c-20.63,0-37.414-16.785-37.414-37.415
		s16.784-37.414,37.414-37.414s37.413,16.784,37.413,37.414S409.601,412.591,388.971,412.591z M493.291,354.911
		c0,6.019-4.896,10.913-10.913,10.913h-38.079c-1.425-8.449-4.742-16.26-9.503-22.986h47.582c6.018,0,10.913,4.902,10.913,10.926
		V354.911z"/>
	<path fill="#2A3B8E" d="M407.056,230.548V158.43c0-11.629-9.46-21.09-21.09-21.09H97.957c-24.884,0-45.129,20.245-45.129,45.129
		v48.08c0,11.629,9.46,21.09,21.09,21.09h312.049C397.596,251.638,407.056,242.177,407.056,230.548z M239.296,156.048h73.537v76.882
		h-73.537V156.048z M220.588,232.93h-73.535v-76.882h73.535V232.93z M71.536,230.548v-48.08c0-14.569,11.853-26.421,26.421-26.421
		h30.389v76.882H73.918C72.604,232.93,71.536,231.861,71.536,230.548z M388.348,230.548c0,1.313-1.067,2.382-2.382,2.382h-54.427
		v-76.882h54.427c1.313,0,2.382,1.068,2.382,2.382V230.548z"/>
	<path fill="#2A3B8E" d="M460.885,309.584c5.166,0,9.354-4.188,9.354-9.354v-8.314c0-5.166-4.188-9.354-9.354-9.354
		s-9.354,4.188-9.354,9.354v8.314C451.531,305.396,455.719,309.584,460.885,309.584z"/>
</g>
</svg>
