<?xml version="1.0" encoding="utf-8"?>
<!-- Generator: Adobe Illustrator 16.0.0, SVG Export Plug-In . SVG Version: 6.00 Build 0)  -->
<!DOCTYPE svg PUBLIC "-//W3C//DTD SVG 1.1//EN" "http://www.w3.org/Graphics/SVG/1.1/DTD/svg11.dtd">
<svg version="1.1" id="Layer_1" xmlns="http://www.w3.org/2000/svg" xmlns:xlink="http://www.w3.org/1999/xlink" x="0px" y="0px"
	 width="512px" height="512px" viewBox="0 0 512 512" enable-background="new 0 0 512 512" xml:space="preserve">
<g>
	<g>
		<path fill="#2A3B8E" d="M489.061,29.38H267.469V16.471c0-6.334-5.135-11.469-11.469-11.469s-11.469,5.135-11.469,11.469V29.38
			H22.939C10.29,29.38,0,39.67,0,52.319v21.284c0,12.648,10.29,22.939,22.939,22.939h3.117v257.795
			c0,12.647,10.29,22.938,22.939,22.938h195.536v33.662l-84.993,62.344c-5.107,3.747-6.212,10.925-2.465,16.031
			c3.748,5.108,10.925,6.212,16.032,2.466l71.426-52.393v43.145c0,6.334,5.135,11.469,11.469,11.469
			c6.335,0,11.469-5.135,11.469-11.469v-43.145l71.426,52.393c2.045,1.499,4.421,2.222,6.775,2.222c3.529,0,7.01-1.623,9.257-4.686
			c3.747-5.107,2.644-12.285-2.465-16.032l-84.993-62.343v-33.662h195.536c12.648,0,22.939-10.291,22.939-22.939V96.541h3.116
			c12.648,0,22.939-10.29,22.939-22.939V52.319C512,39.67,501.71,29.38,489.061,29.38z M463.005,354.335H48.995V96.541h414.011
			L463.005,354.335L463.005,354.335z M489.061,73.602H22.939V52.319h466.123L489.061,73.602L489.061,73.602z"/>
	</g>
</g>
<g>
	<g>
		<path fill="#2A3B8E" d="M255.782,129.754c-5.701,0-10.322,4.621-10.322,10.322v79.157h-79.157
			c-5.701,0-10.322,4.621-10.322,10.322c0,55.031,44.771,99.8,99.802,99.8s99.803-44.771,99.803-99.8
			C355.586,174.525,310.812,129.754,255.782,129.754z M255.782,308.712c-40.15,0-73.413-30.046-78.487-68.834h78.487
			c5.7,0,10.321-4.621,10.321-10.322v-78.487c38.789,5.074,68.836,38.337,68.836,78.487
			C334.94,273.203,299.43,308.712,255.782,308.712z"/>
	</g>
</g>
<g>
	<g>
		<path fill="#2A3B8E" d="M220.845,119.075c-41.652,0-75.539,33.891-75.539,75.548c0,5.701,4.621,10.322,10.322,10.322h65.217
			c5.701,0,10.322-4.621,10.322-10.322v-65.226C231.168,123.696,226.547,119.075,220.845,119.075z M210.523,184.301h-43.599
			c4.203-22.013,21.59-39.403,43.599-43.607V184.301z"/>
	</g>
</g>
</svg>
