<?xml version="1.0" encoding="utf-8"?>
<!-- Generator: Adobe Illustrator 16.0.0, SVG Export Plug-In . SVG Version: 6.00 Build 0)  -->
<!DOCTYPE svg PUBLIC "-//W3C//DTD SVG 1.1//EN" "http://www.w3.org/Graphics/SVG/1.1/DTD/svg11.dtd">
<svg version="1.1" id="Layer_1" xmlns="http://www.w3.org/2000/svg" xmlns:xlink="http://www.w3.org/1999/xlink" x="0px" y="0px"
	 width="512px" height="512px" viewBox="0 0 512 512" enable-background="new 0 0 512 512" xml:space="preserve">
<g>
	<path fill="#2A3B8E" d="M182.857,296.143h-21.475l-34.99-50.894c-0.06-0.087-0.127-0.163-0.19-0.248
		c-0.108-0.146-0.215-0.294-0.331-0.433c-0.107-0.129-0.224-0.25-0.337-0.371c-0.085-0.094-0.169-0.188-0.259-0.277
		c-0.135-0.133-0.275-0.256-0.417-0.379c-0.08-0.07-0.159-0.143-0.241-0.211c-0.146-0.117-0.297-0.227-0.448-0.334
		c-0.09-0.066-0.179-0.132-0.272-0.193c-0.144-0.096-0.292-0.182-0.439-0.267c-0.112-0.065-0.223-0.133-0.337-0.193
		c-0.133-0.069-0.268-0.132-0.403-0.194c-0.139-0.064-0.275-0.129-0.417-0.188c-0.121-0.049-0.245-0.09-0.367-0.133
		c-0.159-0.058-0.316-0.115-0.479-0.163c-0.12-0.035-0.241-0.062-0.362-0.093c-0.166-0.041-0.33-0.084-0.5-0.116
		c-0.14-0.027-0.283-0.044-0.425-0.065c-0.15-0.021-0.297-0.047-0.449-0.061c-0.197-0.018-0.395-0.023-0.592-0.029
		c-0.089-0.004-0.177-0.016-0.269-0.016h-0.074c-0.004,0-0.01,0-0.015,0H99.429c-0.119,0-0.235,0.014-0.354,0.02
		c-0.168,0.006-0.336,0.008-0.505,0.024c-0.191,0.019-0.376,0.05-0.563,0.077c-0.1,0.017-0.198,0.023-0.298,0.042
		c-0.015,0.003-0.03,0.008-0.044,0.011c-0.217,0.043-0.428,0.099-0.639,0.157c-0.084,0.022-0.171,0.04-0.255,0.065
		c-0.193,0.058-0.38,0.13-0.568,0.201c-0.098,0.036-0.2,0.068-0.297,0.107c-0.139,0.059-0.273,0.129-0.409,0.193
		c-0.137,0.065-0.277,0.126-0.411,0.198c-0.073,0.04-0.142,0.087-0.214,0.128c-0.188,0.107-0.375,0.216-0.552,0.336
		c-0.012,0.007-0.021,0.016-0.032,0.023c-0.477,0.325-0.92,0.691-1.322,1.094c-0.008,0.009-0.014,0.017-0.021,0.024
		c-0.197,0.199-0.385,0.405-0.562,0.62c-0.11,0.132-0.208,0.273-0.311,0.413c-0.069,0.094-0.144,0.185-0.21,0.281
		c-0.143,0.212-0.274,0.431-0.4,0.653c-0.018,0.031-0.039,0.061-0.056,0.092c-0.113,0.207-0.212,0.42-0.31,0.637
		c-0.024,0.054-0.053,0.104-0.077,0.158c-0.072,0.166-0.129,0.34-0.191,0.512c-0.039,0.109-0.084,0.217-0.12,0.328
		c-0.039,0.122-0.065,0.248-0.099,0.372c-0.046,0.168-0.095,0.336-0.13,0.507c-0.019,0.085-0.027,0.174-0.042,0.259
		c-0.039,0.215-0.077,0.431-0.1,0.65c-0.007,0.069-0.008,0.142-0.014,0.212c-0.019,0.234-0.035,0.471-0.035,0.708
		c0,0.014-0.002,0.026-0.002,0.04c0,0.094,0.012,0.184,0.014,0.277c0.006,0.197,0.012,0.393,0.03,0.589
		c0.017,0.182,0.048,0.358,0.076,0.538c0.016,0.105,0.024,0.211,0.044,0.316l0.021,0.104c0.002,0.009,0.003,0.019,0.006,0.027
		l8.401,43.86H76.93l-15.608-15.607c-0.061-0.061-0.128-0.113-0.189-0.172c-0.156-0.147-0.311-0.295-0.477-0.431
		c-0.119-0.099-0.245-0.185-0.368-0.274c-0.117-0.087-0.231-0.178-0.352-0.258c-0.135-0.091-0.275-0.17-0.414-0.252
		c-0.119-0.07-0.234-0.145-0.355-0.21c-0.135-0.072-0.274-0.134-0.412-0.199c-0.134-0.062-0.265-0.129-0.401-0.187
		c-0.129-0.053-0.261-0.096-0.391-0.143c-0.151-0.055-0.3-0.113-0.456-0.16c-0.125-0.037-0.252-0.064-0.378-0.097
		c-0.163-0.042-0.324-0.087-0.489-0.12c-0.138-0.027-0.279-0.043-0.418-0.064c-0.155-0.022-0.309-0.051-0.466-0.066
		c-0.231-0.023-0.463-0.03-0.694-0.036c-0.071,0-0.136-0.009-0.205-0.009c-0.068,0-0.133,0.009-0.202,0.01
		c-0.232,0.005-0.463,0.013-0.694,0.035c-0.158,0.016-0.311,0.045-0.466,0.068c-0.139,0.02-0.28,0.036-0.418,0.063
		c-0.166,0.033-0.327,0.077-0.489,0.12c-0.125,0.032-0.254,0.06-0.378,0.098c-0.155,0.047-0.305,0.104-0.456,0.16
		c-0.13,0.047-0.262,0.09-0.391,0.143c-0.137,0.057-0.269,0.123-0.401,0.186c-0.138,0.065-0.276,0.126-0.411,0.199
		c-0.121,0.064-0.238,0.14-0.355,0.211c-0.138,0.082-0.279,0.16-0.414,0.251c-0.121,0.081-0.236,0.171-0.352,0.259
		c-0.124,0.091-0.248,0.176-0.368,0.273c-0.166,0.137-0.321,0.283-0.477,0.432c-0.062,0.059-0.129,0.11-0.189,0.171
		c-0.064,0.063-0.119,0.135-0.182,0.201c-0.143,0.151-0.287,0.303-0.419,0.464c-0.104,0.127-0.195,0.26-0.291,0.391
		c-0.082,0.109-0.166,0.215-0.241,0.328c-0.097,0.145-0.182,0.295-0.27,0.443c-0.064,0.107-0.131,0.213-0.191,0.324
		c-0.079,0.146-0.146,0.299-0.217,0.449c-0.056,0.121-0.117,0.239-0.168,0.363c-0.06,0.145-0.109,0.292-0.161,0.438
		c-0.048,0.135-0.101,0.267-0.142,0.405c-0.044,0.147-0.078,0.297-0.114,0.445c-0.035,0.141-0.074,0.279-0.103,0.422
		c-0.035,0.173-0.055,0.348-0.08,0.523c-0.017,0.121-0.04,0.239-0.053,0.361c-0.03,0.303-0.045,0.607-0.045,0.911v36.564
		c0,0.187,0.017,0.369,0.027,0.552c-0.164,2.533,0.714,5.121,2.649,7.057c1.784,1.785,4.124,2.678,6.464,2.678
		c2.341,0,4.68-0.893,6.465-2.678l16.751-16.751h20.799l-8.399,43.862c-0.002,0.008-0.003,0.018-0.006,0.027l-0.021,0.104
		c-0.021,0.104-0.027,0.21-0.044,0.315c-0.027,0.178-0.058,0.356-0.076,0.538c-0.019,0.198-0.024,0.394-0.029,0.589
		c0,0.094-0.012,0.184-0.012,0.277c0,0.014,0.002,0.026,0.002,0.041c0.001,0.236,0.017,0.473,0.035,0.707
		c0.006,0.07,0.006,0.143,0.014,0.213c0.023,0.219,0.061,0.434,0.1,0.649c0.015,0.086,0.024,0.174,0.042,0.259
		c0.035,0.172,0.084,0.338,0.13,0.508c0.033,0.124,0.061,0.25,0.099,0.372c0.036,0.11,0.081,0.218,0.12,0.327
		c0.062,0.172,0.119,0.346,0.191,0.513c0.023,0.054,0.052,0.104,0.077,0.157c0.097,0.217,0.196,0.43,0.31,0.637
		c0.017,0.032,0.038,0.061,0.056,0.092c0.125,0.223,0.256,0.443,0.4,0.654c0.065,0.097,0.141,0.186,0.21,0.28
		c0.103,0.14,0.201,0.281,0.311,0.414c0.177,0.215,0.366,0.421,0.562,0.619c0.007,0.009,0.014,0.017,0.021,0.024
		c0.402,0.403,0.846,0.77,1.322,1.094c0.012,0.008,0.021,0.016,0.032,0.023c0.178,0.12,0.364,0.228,0.552,0.336
		c0.072,0.041,0.141,0.088,0.214,0.129c0.134,0.071,0.274,0.132,0.411,0.197c0.136,0.064,0.27,0.135,0.409,0.193
		c0.097,0.039,0.199,0.072,0.297,0.108c0.188,0.071,0.375,0.143,0.568,0.201c0.083,0.024,0.17,0.042,0.255,0.065
		c0.211,0.057,0.422,0.113,0.639,0.156c0.015,0.004,0.029,0.008,0.044,0.012c0.138,0.025,0.275,0.039,0.413,0.059
		s0.273,0.046,0.413,0.061c0.303,0.03,0.605,0.047,0.905,0.047c0.018,0,0.033-0.002,0.05-0.002h19.345
		c0.005,0,0.01,0.001,0.015,0.001c0.027,0,0.054-0.005,0.081-0.005c0.319-0.002,0.634-0.021,0.945-0.056
		c0.091-0.011,0.18-0.028,0.271-0.041c0.253-0.035,0.503-0.079,0.749-0.135c0.097-0.022,0.193-0.05,0.291-0.074
		c0.238-0.063,0.471-0.133,0.701-0.214c0.098-0.034,0.195-0.07,0.292-0.107c0.229-0.09,0.453-0.189,0.672-0.296
		c0.089-0.044,0.18-0.083,0.268-0.13c0.292-0.154,0.578-0.32,0.852-0.504c0.059-0.041,0.113-0.088,0.171-0.129
		c0.215-0.152,0.424-0.312,0.625-0.482c0.098-0.083,0.192-0.174,0.288-0.262c0.162-0.149,0.317-0.304,0.468-0.465
		c0.085-0.092,0.169-0.182,0.251-0.276c0.187-0.216,0.362-0.441,0.528-0.675c0.028-0.039,0.062-0.072,0.089-0.113l34.989-50.897
		h21.475c5.049,0,9.143-4.094,9.143-9.144C192,300.236,187.906,296.143,182.857,296.143z M110.488,259.571h3.559l25.143,36.571
		h-21.699L110.488,259.571z M139.19,314.429L114.047,351h-3.559l7.003-36.571H139.19z"/>
	<path fill="#2A3B8E" d="M310.857,341.857h-73.143c-5.049,0-9.143,4.094-9.143,9.143s4.094,9.143,9.143,9.143h73.143
		c5.049,0,9.143-4.094,9.143-9.143S315.906,341.857,310.857,341.857z"/>
	<path fill="#2A3B8E" d="M310.857,296.143h-73.143c-5.049,0-9.143,4.094-9.143,9.143c0,5.05,4.094,9.144,9.143,9.144h73.143
		c5.049,0,9.143-4.094,9.143-9.144C320,300.236,315.906,296.143,310.857,296.143z"/>
	<path fill="#2A3B8E" d="M237.714,268.715h73.143c5.049,0,9.143-4.094,9.143-9.144c0-5.049-4.094-9.143-9.143-9.143h-73.143
		c-5.049,0-9.143,4.094-9.143,9.143C228.571,264.621,232.665,268.715,237.714,268.715z"/>
	<path fill="#2A3B8E" d="M411.429,287c-5.049,0-9.143,4.094-9.143,9.143v64c0,5.049,4.094,9.143,9.143,9.143
		s9.143-4.094,9.143-9.143v-64C420.571,291.094,416.478,287,411.429,287z"/>
	<path fill="#2A3B8E" d="M411.429,241.285c-5.049,0-9.143,4.094-9.143,9.144v9.143c0,5.05,4.094,9.144,9.143,9.144
		s9.143-4.094,9.143-9.144v-9.143C420.571,245.379,416.478,241.285,411.429,241.285z"/>
	<path fill="#2A3B8E" d="M466.286,95h-384c-25.207,0-45.714,20.507-45.714,45.714v55.777C15.731,200.739,0,219.209,0,241.285v128
		C0,394.492,20.507,415,45.714,415h384c25.207,0,45.715-20.508,45.715-45.715v-55.776c20.84-4.248,36.571-22.718,36.571-44.794v-128
		C512,115.507,491.492,95,466.286,95z M18.286,369.285v-128c0-15.123,12.305-27.428,27.429-27.428h147.417
		c0.006,0,0.013,0.001,0.019,0.001c0.004,0,0.01-0.001,0.015-0.001h163.407v182.856H45.714
		C30.591,396.714,18.286,384.409,18.286,369.285z M147.06,159h3.559l25.143,36.571h-21.698L147.06,159z M457.143,369.285
		c0,15.124-12.305,27.429-27.429,27.429h-54.856V213.857h54.856c15.124,0,27.429,12.305,27.429,27.428V369.285z M493.714,268.715
		c0,11.918-7.645,22.08-18.285,25.855v-53.285c0-14.923-7.189-28.197-18.286-36.546v-9.168c0-5.049-4.094-9.143-9.143-9.143
		s-9.143,4.094-9.143,9.143v0.92c-2.956-0.603-6.013-0.92-9.144-0.92H197.953l-34.99-50.894c-0.06-0.086-0.127-0.162-0.188-0.246
		c-0.108-0.147-0.216-0.296-0.333-0.436c-0.106-0.127-0.22-0.245-0.332-0.365c-0.089-0.095-0.174-0.193-0.266-0.283
		c-0.132-0.129-0.269-0.249-0.407-0.369c-0.084-0.073-0.166-0.15-0.252-0.221c-0.142-0.114-0.288-0.221-0.436-0.326
		c-0.095-0.068-0.188-0.138-0.286-0.204c-0.138-0.091-0.281-0.175-0.424-0.258c-0.117-0.069-0.233-0.139-0.353-0.203
		c-0.127-0.066-0.257-0.125-0.388-0.186c-0.143-0.067-0.286-0.135-0.432-0.194c-0.115-0.047-0.233-0.086-0.35-0.128
		c-0.165-0.06-0.328-0.119-0.497-0.168c-0.113-0.033-0.226-0.059-0.34-0.088c-0.173-0.043-0.344-0.088-0.52-0.122
		c-0.133-0.025-0.268-0.041-0.401-0.062c-0.157-0.022-0.313-0.049-0.472-0.063c-0.187-0.019-0.375-0.022-0.562-0.029
		c-0.1-0.002-0.195-0.014-0.296-0.014h-0.081c-0.001,0-0.002,0-0.004,0H136c-0.12,0-0.235,0.014-0.354,0.018
		c-0.168,0.007-0.334,0.009-0.504,0.025c-0.191,0.018-0.377,0.049-0.564,0.078c-0.1,0.016-0.198,0.023-0.297,0.041
		c-0.015,0.003-0.029,0.008-0.044,0.012c-0.217,0.042-0.427,0.098-0.639,0.156c-0.084,0.023-0.171,0.04-0.255,0.065
		c-0.193,0.058-0.381,0.13-0.568,0.201c-0.099,0.037-0.2,0.068-0.297,0.108c-0.14,0.058-0.273,0.128-0.409,0.193
		c-0.137,0.065-0.278,0.125-0.412,0.198c-0.073,0.04-0.142,0.086-0.213,0.128c-0.188,0.107-0.375,0.216-0.552,0.336
		c-0.011,0.007-0.021,0.016-0.032,0.024c-0.477,0.325-0.92,0.69-1.322,1.094c-0.008,0.008-0.014,0.016-0.022,0.024
		c-0.196,0.199-0.385,0.405-0.562,0.62c-0.11,0.132-0.208,0.274-0.311,0.414c-0.07,0.094-0.144,0.184-0.21,0.281
		c-0.143,0.211-0.274,0.431-0.4,0.653c-0.017,0.031-0.039,0.061-0.056,0.092c-0.113,0.207-0.213,0.42-0.31,0.636
		c-0.024,0.054-0.052,0.104-0.077,0.158c-0.072,0.167-0.129,0.341-0.19,0.512c-0.039,0.11-0.085,0.217-0.12,0.328
		c-0.039,0.122-0.065,0.248-0.1,0.373c-0.045,0.168-0.095,0.336-0.13,0.507c-0.018,0.084-0.027,0.172-0.042,0.258
		c-0.039,0.215-0.077,0.431-0.1,0.65c-0.007,0.07-0.008,0.142-0.014,0.212c-0.02,0.234-0.036,0.47-0.036,0.708
		c0,0.014-0.002,0.026-0.002,0.04c0,0.094,0.011,0.184,0.014,0.278c0.006,0.196,0.011,0.392,0.03,0.588
		c0.017,0.182,0.048,0.359,0.075,0.538c0.016,0.105,0.024,0.21,0.044,0.315l0.021,0.105c0.002,0.009,0.003,0.018,0.005,0.027
		l8.4,43.86h-21.942l-15.608-15.608c-0.061-0.061-0.128-0.113-0.189-0.171c-0.156-0.147-0.311-0.295-0.477-0.431
		c-0.119-0.099-0.245-0.184-0.368-0.274c-0.117-0.087-0.231-0.177-0.352-0.259c-0.135-0.09-0.275-0.168-0.414-0.251
		c-0.119-0.071-0.234-0.146-0.355-0.21c-0.135-0.072-0.274-0.134-0.412-0.199c-0.133-0.062-0.265-0.129-0.401-0.186
		c-0.129-0.055-0.261-0.097-0.391-0.144c-0.151-0.055-0.3-0.113-0.456-0.16c-0.125-0.038-0.253-0.065-0.378-0.097
		c-0.163-0.041-0.324-0.087-0.489-0.12c-0.138-0.028-0.279-0.044-0.418-0.063c-0.155-0.023-0.309-0.053-0.466-0.068
		c-0.23-0.022-0.462-0.029-0.693-0.035c-0.071,0-0.136-0.01-0.205-0.01c-0.069,0-0.134,0.01-0.203,0.011
		c-0.232,0.005-0.462,0.013-0.693,0.036c-0.158,0.014-0.311,0.044-0.466,0.066c-0.14,0.021-0.28,0.037-0.418,0.064
		c-0.166,0.033-0.327,0.078-0.489,0.12c-0.125,0.032-0.253,0.06-0.378,0.097c-0.156,0.047-0.305,0.105-0.456,0.16
		c-0.13,0.047-0.262,0.09-0.391,0.143c-0.137,0.058-0.269,0.124-0.401,0.187c-0.139,0.065-0.277,0.126-0.412,0.199
		c-0.121,0.065-0.238,0.14-0.355,0.21c-0.138,0.082-0.279,0.161-0.414,0.252c-0.121,0.081-0.235,0.171-0.352,0.258
		c-0.124,0.092-0.248,0.178-0.368,0.274c-0.166,0.136-0.321,0.283-0.477,0.431c-0.062,0.06-0.129,0.111-0.189,0.172
		c-0.064,0.064-0.119,0.135-0.182,0.201c-0.143,0.152-0.287,0.303-0.419,0.464c-0.104,0.127-0.196,0.259-0.292,0.391
		c-0.081,0.11-0.166,0.215-0.241,0.328c-0.097,0.146-0.182,0.295-0.27,0.443c-0.064,0.107-0.132,0.212-0.191,0.323
		c-0.079,0.147-0.146,0.3-0.217,0.451c-0.056,0.119-0.117,0.238-0.168,0.361c-0.06,0.146-0.108,0.293-0.161,0.439
		c-0.048,0.135-0.101,0.268-0.142,0.405c-0.045,0.147-0.078,0.298-0.114,0.446c-0.036,0.141-0.075,0.278-0.103,0.422
		c-0.034,0.172-0.055,0.347-0.08,0.521c-0.017,0.121-0.04,0.24-0.053,0.362c-0.029,0.304-0.045,0.606-0.045,0.911v9.136H54.857
		v-54.857c0-15.124,12.305-27.429,27.429-27.429h310.857v54.857c0,5.048,4.094,9.142,9.144,9.142c5.049,0,9.143-4.094,9.143-9.142
		v-54.857h54.857c15.123,0,27.428,12.305,27.428,27.429V268.715z"/>
	<path fill="#2A3B8E" d="M347.429,149.857h-73.144c-5.049,0-9.143,4.094-9.143,9.143s4.094,9.143,9.143,9.143h73.144
		c5.049,0,9.143-4.094,9.143-9.143S352.478,149.857,347.429,149.857z"/>
	<path fill="#2A3B8E" d="M448,140.714c-5.049,0-9.143,4.094-9.143,9.143V159c0,5.049,4.094,9.143,9.143,9.143
		s9.143-4.094,9.143-9.143v-9.143C457.143,144.808,453.049,140.714,448,140.714z"/>
</g>
</svg>
