<?xml version="1.0" encoding="utf-8"?>
<!-- Generator: Adobe Illustrator 16.0.0, SVG Export Plug-In . SVG Version: 6.00 Build 0)  -->
<!DOCTYPE svg PUBLIC "-//W3C//DTD SVG 1.1//EN" "http://www.w3.org/Graphics/SVG/1.1/DTD/svg11.dtd">
<svg version="1.1" id="Layer_1" xmlns="http://www.w3.org/2000/svg" xmlns:xlink="http://www.w3.org/1999/xlink" x="0px" y="0px"
	 width="512px" height="512px" viewBox="0 0 512 512" enable-background="new 0 0 512 512" xml:space="preserve">
<g>
	<g>
		<path fill="#2A3B8E" d="M393.741,341.333c-47.054,0-85.333,38.28-85.333,85.333S346.688,512,393.741,512
			s85.333-38.28,85.333-85.333C479.074,379.613,440.794,341.333,393.741,341.333z M393.741,493.037
			c-36.598,0-66.37-29.773-66.37-66.37s29.772-66.37,66.37-66.37c36.597,0,66.37,29.773,66.37,66.37
			S430.338,493.037,393.741,493.037z"/>
	</g>
</g>
<g>
	<g>
		<path fill="#2A3B8E" d="M437.736,390.938c-4.023-3.35-10-2.808-13.354,1.215l-40.759,48.913l-21.104-21.103
			c-3.698-3.704-9.708-3.704-13.406,0c-3.704,3.701-3.704,9.706,0,13.407l28.443,28.444c1.782,1.781,4.194,2.777,6.704,2.777
			c0.144,0,0.287-0.002,0.431-0.009c2.659-0.12,5.147-1.357,6.854-3.403l47.407-56.889
			C442.303,400.269,441.759,394.292,437.736,390.938z"/>
	</g>
</g>
<g>
	<g>
		<path fill="#2A3B8E" d="M393.741,0H52.407c-5.236,0-9.482,4.245-9.482,9.482v474.074c0,3.417,1.838,6.567,4.81,8.25
			c2.968,1.686,6.618,1.64,9.549-0.12l41.942-25.163l32.824,24.619c3.086,2.315,7.266,2.528,10.567,0.544l41.941-25.163
			l32.824,24.619c1.682,1.26,3.68,1.896,5.69,1.896c1.683,0,3.372-0.447,4.877-1.353l47.407-28.443
			c4.49-2.694,5.947-8.52,3.252-13.007c-2.694-4.488-8.521-5.947-13.008-3.252l-41.941,25.164l-32.824-24.62
			c-3.09-2.315-7.266-2.53-10.566-0.544l-41.942,25.164l-32.824-24.62c-3.09-2.315-7.266-2.53-10.567-0.544L61.889,466.81V18.963
			h322.37v293.926c0,5.236,4.245,9.481,9.481,9.481c5.235,0,9.481-4.245,9.481-9.481V9.482C403.222,4.245,398.977,0,393.741,0z"/>
	</g>
</g>
<g>
	<g>
		<path fill="#2A3B8E" d="M147.222,85.333H99.815c-5.236,0-9.482,4.245-9.482,9.482s4.245,9.482,9.482,9.482h47.407
			c5.236,0,9.481-4.245,9.481-9.482S152.458,85.333,147.222,85.333z"/>
	</g>
</g>
<g>
	<g>
		<path fill="#2A3B8E" d="M327.37,132.741h-47.407c-5.236,0-9.48,4.245-9.48,9.482c0,5.237,4.244,9.481,9.48,9.481h47.407
			c5.236,0,9.481-4.245,9.481-9.481C336.852,136.987,332.607,132.741,327.37,132.741z"/>
	</g>
</g>
<g>
	<g>
		<path fill="#2A3B8E" d="M327.37,180.148h-47.407c-5.236,0-9.48,4.245-9.48,9.482c0,5.237,4.244,9.481,9.48,9.481h47.407
			c5.236,0,9.481-4.245,9.481-9.481C336.852,184.394,332.607,180.148,327.37,180.148z"/>
	</g>
</g>
<g>
	<g>
		<path fill="#2A3B8E" d="M327.37,227.556h-47.407c-5.236,0-9.48,4.245-9.48,9.482c0,5.237,4.244,9.481,9.48,9.481h47.407
			c5.236,0,9.481-4.245,9.481-9.481C336.852,231.802,332.607,227.556,327.37,227.556z"/>
	</g>
</g>
<g>
	<g>
		<path fill="#2A3B8E" d="M327.37,274.963h-47.407c-5.236,0-9.48,4.245-9.48,9.482c0,5.236,4.244,9.48,9.48,9.48h47.407
			c5.236,0,9.481-4.244,9.481-9.48S332.607,274.963,327.37,274.963z"/>
	</g>
</g>
<g>
	<g>
		<path fill="#2A3B8E" d="M327.37,322.37h-47.407c-5.236,0-9.48,4.245-9.48,9.481c0,5.237,4.244,9.481,9.48,9.481h47.407
			c5.236,0,9.481-4.245,9.481-9.481C336.852,326.616,332.607,322.37,327.37,322.37z"/>
	</g>
</g>
<g>
	<g>
		<path fill="#2A3B8E" d="M232.557,132.741H99.815c-5.236,0-9.482,4.245-9.482,9.482c0,5.237,4.245,9.481,9.482,9.481h132.742
			c5.235,0,9.481-4.245,9.481-9.481C242.038,136.987,237.792,132.741,232.557,132.741z"/>
	</g>
</g>
<g>
	<g>
		<path fill="#2A3B8E" d="M232.557,180.148H99.815c-5.236,0-9.482,4.245-9.482,9.482c0,5.237,4.245,9.481,9.482,9.481h132.742
			c5.235,0,9.481-4.245,9.481-9.481C242.038,184.394,237.792,180.148,232.557,180.148z"/>
	</g>
</g>
<g>
	<g>
		<path fill="#2A3B8E" d="M232.557,227.556H99.815c-5.236,0-9.482,4.245-9.482,9.482c0,5.237,4.245,9.481,9.482,9.481h132.742
			c5.235,0,9.481-4.245,9.481-9.481C242.038,231.802,237.792,227.556,232.557,227.556z"/>
	</g>
</g>
<g>
	<g>
		<path fill="#2A3B8E" d="M232.557,274.963H99.815c-5.236,0-9.482,4.245-9.482,9.482c0,5.236,4.245,9.48,9.482,9.48h132.742
			c5.235,0,9.481-4.244,9.481-9.48S237.792,274.963,232.557,274.963z"/>
	</g>
</g>
<g>
	<g>
		<path fill="#2A3B8E" d="M232.557,322.37H99.815c-5.236,0-9.482,4.245-9.482,9.481c0,5.237,4.245,9.481,9.482,9.481h132.742
			c5.235,0,9.481-4.245,9.481-9.481C242.038,326.616,237.792,322.37,232.557,322.37z"/>
	</g>
</g>
</svg>
