<?xml version="1.0" encoding="utf-8"?>
<!-- Generator: Adobe Illustrator 16.0.0, SVG Export Plug-In . SVG Version: 6.00 Build 0)  -->
<!DOCTYPE svg PUBLIC "-//W3C//DTD SVG 1.1//EN" "http://www.w3.org/Graphics/SVG/1.1/DTD/svg11.dtd">
<svg version="1.1" id="Layer_1" xmlns="http://www.w3.org/2000/svg" xmlns:xlink="http://www.w3.org/1999/xlink" x="0px" y="0px"
	 width="512px" height="512px" viewBox="0 0 512 512" enable-background="new 0 0 512 512" xml:space="preserve">
<g>
	<g>
		<path fill="#2A3B8E" d="M214.687,403.828c-24.829,0-45.029,20.2-45.029,45.029c0,24.828,20.2,45.028,45.029,45.028
			s45.029-20.2,45.029-45.028C259.714,424.028,239.515,403.828,214.687,403.828z M214.687,468.742
			c-10.966,0-19.887-8.922-19.887-19.887c0-10.967,8.922-19.888,19.887-19.888s19.887,8.922,19.887,19.888
			C234.573,459.822,225.651,468.742,214.687,468.742z"/>
	</g>
</g>
<g>
	<g>
		<path fill="#2A3B8E" d="M372.632,403.828c-24.83,0-45.029,20.2-45.029,45.029c0,24.828,20.199,45.028,45.029,45.028
			c24.828,0,45.029-20.2,45.029-45.028C417.659,424.028,397.46,403.828,372.632,403.828z M372.632,468.742
			c-10.967,0-19.887-8.922-19.887-19.887c0-10.967,8.922-19.888,19.887-19.888s19.887,8.922,19.887,19.888
			C392.519,459.822,383.597,468.742,372.632,468.742z"/>
	</g>
</g>
<g>
	<g>
		<path fill="#2A3B8E" d="M383.718,166.755H203.568c-6.943,0-12.571,5.628-12.571,12.571c0,6.943,5.629,12.571,12.571,12.571
			h180.149c6.943,0,12.57-5.628,12.57-12.571C396.288,172.382,390.661,166.755,383.718,166.755z"/>
	</g>
</g>
<g>
	<g>
		<path fill="#2A3B8E" d="M373.913,232.035H213.375c-6.943,0-12.571,5.628-12.571,12.57c0,6.943,5.628,12.571,12.571,12.571h160.537
			c6.943,0,12.572-5.628,12.572-12.571C386.483,237.664,380.854,232.035,373.913,232.035z"/>
	</g>
</g>
<g>
	<g>
		<path fill="#2A3B8E" d="M506.343,110.744c-4.795-5.884-11.898-9.258-19.49-9.258H95.279l-7.908-38.389
			c-1.651-8.008-7.113-14.732-14.614-17.989l-55.177-23.95c-6.37-2.767-13.773,0.156-16.536,6.524
			c-2.766,6.37,0.157,13.774,6.524,16.537L62.747,68.17l60.826,295.262c2.396,11.627,12.752,20.067,24.625,20.067h301.167
			c6.941,0,12.57-5.628,12.57-12.571s-5.629-12.57-12.57-12.57H148.198l-7.399-35.916h310.893c11.871,0,22.229-8.44,24.623-20.068
			l35.162-170.675C513.009,124.266,511.138,116.627,506.343,110.744z M451.692,297.301H135.621l-35.161-170.674l386.393,0.001
			L451.692,297.301z"/>
	</g>
</g>
</svg>
